<svg xmlns="http://www.w3.org/2000/svg" viewBox="0 0 100 100">
  <path d="M95,5 Q90,5 85,5 C70,5 60,15 50,25 C40,35 30,45 15,45 Q10,45 5,45" 
        fill="none" 
        stroke="#1b4d3e" 
        stroke-width="1.5"
        stroke-linecap="round"/>
  <path d="M80,5 C65,5 55,15 45,25 C35,35 25,45 10,45" 
        fill="none" 
        stroke="#1b4d3e" 
        stroke-width="1"
        stroke-linecap="round"/>
  <path d="M65,5 C50,5 40,15 30,25 C20,35 10,45 5,45" 
        fill="none" 
        stroke="#1b4d3e" 
        stroke-width="0.5"
        stroke-linecap="round"/>
  <!-- Decorative dots -->
  <circle cx="95" cy="5" r="2" fill="#1b4d3e"/>
  <circle cx="5" cy="45" r="2" fill="#1b4d3e"/>
  <!-- Small flourishes -->
  <path d="M75,10 Q77,8 79,10 Q81,12 83,10" 
        fill="none" 
        stroke="#1b4d3e" 
        stroke-width="0.5"/>
  <path d="M10,35 Q12,33 14,35 Q16,37 18,35" 
        fill="none" 
        stroke="#1b4d3e" 
        stroke-width="0.5"/>
</svg>